<?xml version="1.0" encoding="UTF-8"?><svg id="_レイヤー_1" xmlns="http://www.w3.org/2000/svg" width="61.3465" height="61.3465" viewBox="0 0 61.3465 61.3465"><circle cx="30.6732" cy="30.6732" r="30.6732" fill="#fff"/><path d="M25.7469,15.0215c-3.6833,0-6.6861,3.0029-6.6861,6.6861,0,2.596,1.5338,4.7927,3.7041,5.8995-2.1703,1.1069-3.7041,3.3035-3.7041,5.8995s1.5338,4.7927,3.7041,5.8995c-2.1703,1.1069-3.7041,3.3035-3.7041,5.8995,0,3.6833,3.0029,6.6861,6.6861,6.6861s6.6861-3.0029,6.6861-6.6861v-8.5297c1.0551,2.0023,3.093,3.4168,5.5062,3.4168,3.4661,0,6.2928-2.8267,6.2928-6.2928,0-2.8489-1.9459-5.169-4.5506-5.9395,2.6262-.9026,4.5506-3.3265,4.5506-6.2529,0-3.6833-3.0029-6.6861-6.6861-6.6861h-11.7991ZM25.7469,16.5947h5.1129v10.2259h-5.1129c-2.833,0-5.1129-2.28-5.1129-5.1129s2.28-5.1129,5.1129-5.1129ZM32.433,16.5947h5.1129c2.833,0,5.1129,2.28,5.1129,5.1129s-2.28,5.1129-5.1129,5.1129h-5.1129v-10.2259ZM25.7469,28.3937h5.1129v10.2259h-5.1129c-2.833,0-5.1129-2.28-5.1129-5.1129s2.28-5.1129,5.1129-5.1129ZM32.433,28.3937h2.6302c-1.1287.5948-2.0354,1.5015-2.6302,2.6302v-2.6302ZM37.9393,29.1804c2.6159,0,4.7196,2.1037,4.7196,4.7196s-2.1037,4.7196-4.7196,4.7196-4.7196-2.1037-4.7196-4.7196,2.1037-4.7196,4.7196-4.7196ZM25.7469,40.1928h5.1129v5.1129c0,2.833-2.28,5.1129-5.1129,5.1129s-5.1129-2.28-5.1129-5.1129,2.28-5.1129,5.1129-5.1129Z"/></svg>