<svg xmlns="http://www.w3.org/2000/svg" width="108" height="109" viewBox="0 0 108 109">
  <g id="グループ_304" data-name="グループ 304" transform="translate(-220 -4348)">
    <ellipse id="楕円形_25" data-name="楕円形 25" cx="54" cy="54.5" rx="54" ry="54.5" transform="translate(220 4348)" fill="#fff0f0"/>
    <path id="Icon_awesome-git-alt" data-name="Icon awesome-git-alt" d="M47.861,24.468,26.568,3.17a3.144,3.144,0,0,0-4.444,0L17.7,7.594l5.61,5.61a3.733,3.733,0,0,1,4.725,4.756l5.407,5.407A3.737,3.737,0,1,1,31.2,25.474l-5.047-5.04V33.7a3.735,3.735,0,1,1-3.073-.109V20.2a3.735,3.735,0,0,1-2.03-4.9l-5.53-5.537L.92,24.369a3.142,3.142,0,0,0,0,4.444l21.3,21.3a3.142,3.142,0,0,0,4.443,0l21.2-21.2a3.142,3.142,0,0,0,0-4.444Z" transform="translate(250 4375.75)"/>
  </g>
</svg>
