<svg xmlns="http://www.w3.org/2000/svg" width="108" height="109" viewBox="0 0 108 109">
  <g id="グループ_305" data-name="グループ 305" transform="translate(-220 -4179)">
    <ellipse id="楕円形_24" data-name="楕円形 24" cx="54" cy="54.5" rx="54" ry="54.5" transform="translate(220 4179)" fill="#fff0f0"/>
    <path id="Icon_simple-jquery" data-name="Icon simple-jquery" d="M3.118,11.718C-1.205,17.929-.67,26.007,2.635,32.6c.075.161.159.314.24.466a3.283,3.283,0,0,0,.157.3,1.719,1.719,0,0,0,.1.169c.053.106.11.208.165.31l.32.54c.059.1.116.2.183.3.112.191.244.381.36.572.053.079.1.159.161.238q.3.465.631.9c.159.218.318.43.489.641.055.077.116.155.173.232l.45.548c.055.063.11.136.169.2.2.24.411.474.623.711,0,0,.006.008.01.014a6.374,6.374,0,0,0,.863.9c.163.167.326.334.5.5l.206.2c.226.212.452.424.69.627,0,0,.006,0,.01.006l.116.1c.208.181.417.362.631.529l.255.214c.173.138.352.271.529.407l.277.212c.189.143.391.283.584.422.071.051.143.1.216.149l.059.047.572.377.244.163c.3.191.6.373.892.552.086.043.171.09.25.138.22.126.448.255.67.373.122.069.248.128.375.191.153.086.312.169.474.255a.66.66,0,0,1,.114.047c.067.031.13.063.2.1.244.122.5.238.764.354a1.66,1.66,0,0,1,.155.069c.293.128.586.25.89.371.069.02.143.055.214.081.275.1.558.21.837.31l.1.037c.312.106.619.208.935.305.073.02.149.047.226.067a9.9,9.9,0,0,0,.963.277c20.892,3.808,26.965-12.562,26.965-12.562C42.534,41.2,33.483,42.949,24.91,41c-.318-.073-.635-.175-.955-.269q-.581-.172-1.155-.369l-.126-.049c-.277-.094-.544-.2-.815-.3q-.11-.046-.224-.083c-.3-.12-.591-.244-.88-.373-.063-.02-.116-.049-.179-.073q-.369-.17-.735-.346c-.075-.033-.143-.067-.216-.106-.191-.09-.383-.191-.57-.289q-.193-.093-.381-.2c-.23-.122-.46-.255-.69-.381-.069-.049-.149-.09-.228-.134q-.45-.267-.892-.548-.123-.076-.24-.161-.324-.2-.635-.419c-.071-.047-.136-.1-.21-.149q-.3-.21-.6-.432c-.086-.069-.177-.134-.269-.2-.179-.141-.36-.275-.54-.424l-.24-.191q-.346-.279-.68-.572a.526.526,0,0,0-.075-.061l-.707-.643-.2-.191c-.167-.169-.338-.332-.509-.5l-.2-.2q-.323-.321-.629-.658l-.031-.033c-.216-.236-.426-.476-.637-.721-.055-.063-.106-.13-.163-.2l-.46-.564q-.352-.452-.692-.912C4.393,23.757,2.672,14.8,6.478,7.448m10.053-.961c-3.134,4.5-2.957,10.513-.517,15.27a18.529,18.529,0,0,0,1.379,2.305,10.8,10.8,0,0,0,1.613,2.008c.218.248.454.489.7.731l.183.183q.348.336.713.662l.031.026q.412.36.843.7c.069.047.128.1.2.149.285.22.572.432.869.641l.031.018c.126.092.261.175.4.265.057.037.122.086.183.122.216.138.428.269.646.4.035.014.065.033.1.047.183.112.383.22.574.32.067.041.132.071.2.11.136.067.271.138.4.208l.065.029c.275.134.556.261.831.387.069.026.128.049.187.077.226.1.456.191.682.279.1.035.2.075.293.106.208.077.426.149.631.22l.285.092a6.891,6.891,0,0,0,.912.263c16.127,2.674,19.862-9.748,19.862-9.748-3.362,4.838-9.868,7.143-16.8,5.343q-.46-.119-.912-.265c-.1-.026-.183-.057-.277-.086-.212-.073-.43-.145-.635-.222l-.293-.11c-.228-.092-.46-.177-.682-.275-.069-.031-.132-.051-.185-.081-.285-.128-.572-.255-.849-.391l-.419-.218-.242-.122c-.187-.1-.36-.2-.54-.305a1.263,1.263,0,0,1-.126-.069c-.216-.134-.44-.265-.646-.4-.069-.039-.132-.086-.2-.126l-.424-.277c-.293-.2-.58-.424-.869-.635-.065-.059-.128-.108-.191-.161a19.361,19.361,0,0,1-6.594-9.383A14.581,14.581,0,0,1,19.08,2.875m8.73-.3a9.4,9.4,0,0,0-.753,9.072A12.8,12.8,0,0,0,34.4,18.5c.132.051.261.094.4.143l.179.055c.187.059.377.128.57.171,8.911,1.719,11.322-4.576,11.971-5.5-2.122,3.046-5.679,3.777-10.043,2.716a9.864,9.864,0,0,1-1.051-.326,12.918,12.918,0,0,1-1.256-.517,13.279,13.279,0,0,1-2.2-1.344c-3.91-2.961-6.331-8.614-3.781-13.218" transform="translate(249.984 4209.32)"/>
  </g>
</svg>
