<?xml version="1.0" encoding="UTF-8"?><svg id="_レイヤー_1" xmlns="http://www.w3.org/2000/svg" width="61.3465" height="61.3465" viewBox="0 0 61.3465 61.3465"><circle cx="30.6732" cy="30.6732" r="30.6732" fill="#fff0f0"/><path d="M32.1548,38.2319c-.0185.0369-.0369.0664,0,0ZM47.4768,32.881c-1.2375,0-2.4577.2829-3.5673.8303-.3629-.7319-.7381-1.3716-.7996-1.8513-.0738-.5597-.1538-.8918-.0677-1.5561s.4736-1.6053.4674-1.6729c-.0061-.0677-.0861-.4059-.8795-.4121s-1.4761.1538-1.5561.3629c-.1402.3826-.2497.775-.326,1.1747-.1415.7196-1.5856,3.2905-2.4036,4.6313-.2706-.5228-.4982-.9841-.5474-1.3531-.0738-.5597-.1538-.8918-.0677-1.5561s.4736-1.6053.4674-1.6729c-.0061-.0677-.0861-.4059-.8783-.4121s-1.4761.1538-1.5561.3629c-.08.2091-.1661.7012-.326,1.1747s-2.085,4.7543-2.5881,5.8675c-.2583.5658-.4797,1.021-.6396,1.3285-.0246.0492-.0431.08-.0554.1046.0185-.0308.0308-.0615.0308-.0492-.1353.2645-.2153.4121-.2153.4121v.0061c-.1046.1968-.2214.3752-.2768.3752-.0369,0-.1169-.5166.0185-1.2239.2891-1.4884.9718-3.801.9656-3.8809-.0062-.0431.1292-.4428-.449-.6581-.5597-.203-.7627.1353-.8119.1353s-.0861.123-.0861.123c0,0,.6212-2.6078-1.1932-2.6078-1.1317,0-2.7062,1.2424-3.4799,2.3679-.4859.2645-1.5376.8365-2.6447,1.4454-.4244.2337-.8611.4736-1.2731.7012-.0308-.0308-.0554-.0615-.0861-.0923-2.2019-2.3495-6.2661-4.0101-6.0939-7.1653.0615-1.1501.4613-4.17,7.816-7.8357,6.0274-3.0014,10.8457-2.1773,11.676-.3444,1.1932,2.6139-2.577,7.479-8.8357,8.1801-2.3864.2645-3.6398-.6581-3.9535-1.0025-.326-.3629-.3752-.3813-.4982-.3137-.203.1107-.0738.4305,0,.6212.1845.4859.9533,1.3469,2.2634,1.7775,1.1501.3752,3.9474.5843,7.3289-.7258,3.7997-1.4638,6.7581-5.5416,5.8897-8.9551-.8832-3.4689-6.6351-4.6067-12.0733-2.6754-3.2413,1.1501-6.7458,2.9584-9.2663,5.314-2.9953,2.8046-3.4738,5.2463-3.277,6.2673.7012,3.6226,5.6941,5.9844,7.6918,7.7311-.0984.0554-.1907.1046-.2768.1538-1.0025.4982-4.8084,2.4909-5.7617,4.5944-1.0763,2.3864.1784,4.0962,1.0013,4.3299,2.5709.7135,5.2021-.572,6.6167-2.6816,1.4146-2.1096,1.2424-4.865.5904-6.1197-.0062-.0185-.0185-.0308-.0246-.0492.2583-.1538.5228-.3075.7873-.4613.5105-.3014,1.0087-.5781,1.4454-.818-.246.6643-.4244,1.4638-.5166,2.6201-.1107,1.3531.449,3.106,1.1747,3.7948.3198.3014.7061.3075.9472.3075.8488,0,1.2301-.7012,1.6545-1.5376.5228-1.021.9841-2.208.9841-2.208,0,0-.5781,3.2105,1.0025,3.2105.5781,0,1.1563-.7442,1.4146-1.1255v.0061s.0123-.0246.0431-.0738c.0615-.0923.0923-.1476.0923-.1476v-.0185c.2337-.3998.7442-1.3162,1.513-2.8292.9964-1.9558,1.9485-4.3976,1.9485-4.3976.0923.5363.2202,1.0665.3813,1.5868.1722.5843.5351,1.2239.8242,1.8451-.2337.3198-.3752.5043-.3752.5043,0,.0049.0025.0086.0061.0123-.1845.246-.3936.5105-.6089.7688-.786.9349-1.7221,2.005-1.8451,2.3126-.1476.3629-.1107.6335.1722.8426.2091.1599.5781.1845.9656.1538.7073-.0492,1.2055-.2214,1.4454-.3321.4428-.1587.8598-.3776,1.2424-.6519.7688-.5658,1.2362-1.3777,1.1932-2.4479-.0246-.5904-.2153-1.1809-.449-1.7344.0677-.0984.1415-.203.2091-.3075,1.2166-1.7775,2.1588-3.7284,2.1588-3.7284.0923.5363.219,1.0665.3813,1.5868.1476.4982.4367,1.0456.7012,1.5807-1.144.9287-1.8513,2.005-2.0961,2.7123-.4551,1.31-.0984,1.9005.572,2.0358.3014.0615.7319-.08,1.0517-.2153.4748-.1587.9226-.3887,1.3273-.6827.7688-.5658,1.513-1.3592,1.4626-2.4356-.0185-.4859-.1538-.9718-.3321-1.4392.9656-.4059,2.2203-.6273,3.8194-.4428,3.4246.3998,4.095,2.5401,3.9658,3.432s-.8488,1.39-1.0886,1.5376-.3137.203-.2952.3137c.0308.1599.1415.1538.3444.1169.2829-.0492,1.7959-.7258,1.8636-2.3802.0984-2.0912-1.9128-4.3914-5.4739-4.373l-.0024.0012ZM21.0803,41.7807c-1.1317,1.2362-2.7173,1.7037-3.4,1.31-.7319-.4256-.4428-2.2449.9521-3.5623.8488-.7996,1.9435-1.5376,2.6693-1.9927.1661-.0984.4059-.246.7012-.4244.0492-.0308.0738-.0431.0738-.0431.0554-.0369.1169-.0677.1784-.1046.5093,1.8697.0185,3.5181-1.1747,4.8158v.0012ZM29.344,36.1592c-.3936.9656-1.2227,3.4258-1.7283,3.2966-.4305-.1107-.695-1.9866-.0861-3.8317.3075-.9287.9595-2.0358,1.3469-2.4663.6212-.695,1.3039-.9164,1.4638-.6396.2153.3629-.7504,3.0383-.9964,3.6411ZM36.1711,39.419c-.1661.0861-.3198.1415-.3936.0984-.0554-.0308.0677-.1476.0677-.1476,0,0,.8549-.9164,1.1932-1.3346.1968-.246.4244-.5351.6704-.8549,0,.0308.0061.0615.0061.0984-.0074,1.1009-1.0653,1.8451-1.545,2.1404h.0012ZM41.4358,38.2196c-.123-.0861-.1046-.3752.3075-1.2731.1599-.3506.5289-.941,1.1686-1.5069.0726.214.1119.4379.1169.6643-.0061,1.3839-.9964,1.9005-1.593,2.1158Z"/></svg>